<svg width="23" height="22" viewBox="0 0 23 22" fill="none" xmlns="http://www.w3.org/2000/svg">
<path d="M9.08439 4.58331H7.25106C6.23854 4.58331 5.41772 5.40412 5.41772 6.41665V17.4166C5.41772 18.4292 6.23854 19.25 7.25106 19.25H16.4177C17.4302 19.25 18.2511 18.4292 18.2511 17.4166V6.41665C18.2511 5.40412 17.4302 4.58331 16.4177 4.58331H14.5844" stroke="#2F2B3D" stroke-opacity="0.9" stroke-width="1.5" stroke-linecap="round" stroke-linejoin="round"/>
<rect x="9.08447" y="2.75" width="5.5" height="3.66667" rx="1.83333" stroke="#2F2B3D" stroke-opacity="0.9" stroke-width="1.5" stroke-linecap="round" stroke-linejoin="round"/>
<path d="M13.6676 10.0833H11.376C10.6166 10.0833 10.001 10.6989 10.001 11.4583C10.001 12.2177 10.6166 12.8333 11.376 12.8333H12.2926C13.052 12.8333 13.6676 13.4489 13.6676 14.2083C13.6676 14.9677 13.052 15.5833 12.2926 15.5833H10.001" stroke="#2F2B3D" stroke-opacity="0.9" stroke-width="1.5" stroke-linecap="round" stroke-linejoin="round"/>
<path d="M12.5843 15.5834C12.5843 15.1691 12.2485 14.8334 11.8343 14.8334C11.4201 14.8334 11.0843 15.1691 11.0843 15.5834H12.5843ZM11.0843 16.5C11.0843 16.9142 11.4201 17.25 11.8343 17.25C12.2485 17.25 12.5843 16.9142 12.5843 16.5H11.0843ZM12.5843 9.16669C12.5843 8.75247 12.2485 8.41669 11.8343 8.41669C11.4201 8.41669 11.0843 8.75247 11.0843 9.16669H12.5843ZM11.0843 10.0834C11.0843 10.4976 11.4201 10.8334 11.8343 10.8334C12.2485 10.8334 12.5843 10.4976 12.5843 10.0834H11.0843ZM11.0843 15.5834V16.5H12.5843V15.5834H11.0843ZM11.0843 9.16669V10.0834H12.5843V9.16669H11.0843Z" fill="#2F2B3D" fill-opacity="0.9"/>
</svg>
