<svg width="19" height="19" viewBox="0 0 19 19" fill="none" xmlns="http://www.w3.org/2000/svg">
<path d="M15.3008 12.3877C15.2583 12.4905 15.1862 12.5784 15.0937 12.6402C15.0012 12.702 14.8925 12.735 14.7812 12.7351H3.5312C3.41989 12.7351 3.31105 12.7022 3.21846 12.6404C3.12588 12.5786 3.05372 12.4907 3.0111 12.3879C2.96849 12.285 2.95735 12.1719 2.97909 12.0627C3.00084 11.9535 3.05448 11.8533 3.13324 11.7746L8.75824 6.14959C8.81048 6.09729 8.87252 6.0558 8.9408 6.0275C9.00909 5.99919 9.08228 5.98462 9.15621 5.98462C9.23013 5.98462 9.30332 5.99919 9.37161 6.0275C9.4399 6.0558 9.50193 6.09729 9.55417 6.14959L15.1792 11.7746C15.2578 11.8533 15.3113 11.9536 15.333 12.0627C15.3547 12.1718 15.3435 12.2849 15.3008 12.3877Z" fill="#75B325"/>
</svg>
