<svg width="42" height="49" viewBox="0 0 42 49" fill="none" xmlns="http://www.w3.org/2000/svg">
<path d="M41.4064 24.6132C41.4079 25.2498 41.2447 25.876 40.9326 26.4309C40.6204 26.9857 40.17 27.4504 39.6251 27.7796L5.85637 48.4374C5.28704 48.7861 4.63497 48.9764 3.96749 48.9887C3.30002 49.0011 2.64134 48.8351 2.0595 48.5077C1.48319 48.1855 1.00311 47.7156 0.668631 47.1463C0.334149 46.5771 0.157335 45.929 0.156372 45.2687V3.95775C0.157335 3.29748 0.334149 2.64938 0.668631 2.0801C1.00311 1.51082 1.48319 1.04091 2.0595 0.718684C2.64134 0.391376 3.30002 0.225328 3.96749 0.237688C4.63497 0.250049 5.28704 0.44037 5.85637 0.788997L39.6251 21.4468C40.17 21.776 40.6204 22.2407 40.9326 22.7955C41.2447 23.3504 41.4079 23.9766 41.4064 24.6132Z" fill="white" fill-opacity="0.8"/>
</svg>
